HIERARCHY
ROOT hip
{
  OFFSET 0 0 0
  CHANNELS 6 Xposition Yposition Zposition Zrotation Yrotation Xrotation
  JOINT abdomen
  {
    OFFSET 0 20.6881 -0.73152
    CHANNELS 3 Zrotation Xrotation Yrotation
    JOINT chest
    {
      OFFSET 0 11.7043 -0.48768
      CHANNELS 3 Zrotation Xrotation Yrotation
      JOINT neck
      {
        OFFSET 0 22.1894 -2.19456
        CHANNELS 3 Zrotation Xrotation Yrotation
        JOINT head
        {
          OFFSET -0.24384 7.07133 1.2192
          CHANNELS 3 Zrotation Xrotation Yrotation
          JOINT leftEye
          {
            OFFSET 4.14528 8.04674 8.04672
            CHANNELS 3 Zrotation Xrotation Yrotation
            End Site
            {
              OFFSET 1 0 0
            }
          }
          JOINT rightEye
          {
            OFFSET -3.6576 8.04674 8.04672
            CHANNELS 3 Zrotation Xrotation Yrotation
            End Site
            {
              OFFSET 1 0 0
            }
          }
        }
      }
      JOINT rCollar
      {
        OFFSET -2.68224 19.2634 -4.8768
        CHANNELS 3 Zrotation Xrotation Yrotation
        JOINT rShldr
        {
          OFFSET -8.77824 -1.95073 1.46304
          CHANNELS 3 Zrotation Xrotation Yrotation
          JOINT rForeArm
          {
            OFFSET -28.1742 -1.7115 0.48768
            CHANNELS 3 Zrotation Xrotation Yrotation
            JOINT rHand
            {
              OFFSET -22.5879 0.773209 7.07136
              CHANNELS 3 Zrotation Xrotation Yrotation
              JOINT rThumb1
              {
                OFFSET -1.2192 -0.487915 3.41376
                CHANNELS 3 Zrotation Xrotation Yrotation
                JOINT rThumb2
                {
                  OFFSET -3.37035 -0.52449 3.41376
                  CHANNELS 3 Zrotation Xrotation Yrotation
                  End Site
                  {
                    OFFSET -1.78271 -1.18214 1.43049
                  }
                }
              }
              JOINT rIndex1
              {
                OFFSET -7.75947 0.938293 5.60832
                CHANNELS 3 Zrotation Xrotation Yrotation
                JOINT rIndex2
                {
                  OFFSET -2.54057 -0.884171 1.56538
                  CHANNELS 3 Zrotation Xrotation Yrotation
                  End Site
                  {
                    OFFSET -1.62519 -0.234802 1.16502
                  }
                }
              }
              JOINT rMid1
              {
                OFFSET -8.24714 1.18213 3.41376
                CHANNELS 3 Zrotation Xrotation Yrotation
                JOINT rMid2
                {
                  OFFSET -3.10165 -0.590103 1.0647
                  CHANNELS 3 Zrotation Xrotation Yrotation
                  End Site
                  {
                    OFFSET -2.48547 -0.328903 0.83742
                  }
                }
              }
              JOINT rRing1
              {
                OFFSET -8.82822 0.546677 1.51678
                CHANNELS 3 Zrotation Xrotation Yrotation
                JOINT rRing2
                {
                  OFFSET -2.60934 -0.819778 -0.0198488
                  CHANNELS 3 Zrotation Xrotation Yrotation
                  End Site
                  {
                    OFFSET -2.33842 -0.294052 0.168128
                  }
                }
              }
              JOINT rPinky1
              {
                OFFSET -8.27202 -0.0477905 -0.4584
                CHANNELS 3 Zrotation Xrotation Yrotation
                JOINT rPinky2
                {
                  OFFSET -1.82734 -0.647385 -0.700984
                  CHANNELS 3 Zrotation Xrotation Yrotation
                  End Site
                  {
                    OFFSET -1.69225 -0.51767 -0.607171
                  }
                }
              }
            }
          }
        }
      }
      JOINT lCollar
      {
        OFFSET 2.68224 19.2634 -4.8768
        CHANNELS 3 Zrotation Xrotation Yrotation
        JOINT lShldr
        {
          OFFSET 8.77824 -1.95073 1.46304
          CHANNELS 3 Zrotation Xrotation Yrotation
          JOINT lForeArm
          {
            OFFSET 28.1742 -1.7115 0.48768
            CHANNELS 3 Zrotation Xrotation Yrotation
            JOINT lHand
            {
              OFFSET 22.5879 0.773209 7.07136
              CHANNELS 3 Zrotation Xrotation Yrotation
              JOINT lThumb1
              {
                OFFSET 1.2192 -0.487915 3.41376
                CHANNELS 3 Zrotation Xrotation Yrotation
                JOINT lThumb2
                {
                  OFFSET 3.37035 -0.52449 3.41376
                  CHANNELS 3 Zrotation Xrotation Yrotation
                  End Site
                  {
                    OFFSET 1.78271 -1.18214 1.43049
                  }
                }
              }
              JOINT lIndex1
              {
                OFFSET 7.75947 0.938293 5.60832
                CHANNELS 3 Zrotation Xrotation Yrotation
                JOINT lIndex2
                {
                  OFFSET 2.54057 -0.884171 1.56538
                  CHANNELS 3 Zrotation Xrotation Yrotation
                  End Site
                  {
                    OFFSET 1.62519 -0.234802 1.16502
                  }
                }
              }
              JOINT lMid1
              {
                OFFSET 8.24714 1.18213 3.41376
                CHANNELS 3 Zrotation Xrotation Yrotation
                JOINT lMid2
                {
                  OFFSET 3.10165 -0.590103 1.0647
                  CHANNELS 3 Zrotation Xrotation Yrotation
                  End Site
                  {
                    OFFSET 2.48547 -0.328903 0.83742
                  }
                }
              }
              JOINT lRing1
              {
                OFFSET 8.82822 0.546677 1.51678
                CHANNELS 3 Zrotation Xrotation Yrotation
                JOINT lRing2
                {
                  OFFSET 2.60934 -0.819778 -0.0198488
                  CHANNELS 3 Zrotation Xrotation Yrotation
                  End Site
                  {
                    OFFSET 2.33842 -0.294052 0.168128
                  }
                }
              }
              JOINT lPinky1
              {
                OFFSET 8.27202 -0.0477905 -0.4584
                CHANNELS 3 Zrotation Xrotation Yrotation
                JOINT lPinky2
                {
                  OFFSET 1.82734 -0.647385 -0.700984
                  CHANNELS 3 Zrotation Xrotation Yrotation
                  End Site
                  {
                    OFFSET 1.69225 -0.51767 -0.607171
                  }
                }
              }
            }
          }
        }
      }
    }
  }
  JOINT rButtock
  {
    OFFSET -8.77824 4.35084 1.2192
    CHANNELS 3 Zrotation Xrotation Yrotation
    JOINT rThigh
    {
      OFFSET 0 -1.70687 -2.19456
      CHANNELS 3 Zrotation Xrotation Yrotation
      JOINT rShin
      {
        OFFSET 0 -36.8199 0.73152
        CHANNELS 3 Zrotation Xrotation Yrotation
        JOINT rFoot
        {
          OFFSET 0.73152 -45.1104 -5.12064
          CHANNELS 3 Zrotation Xrotation Yrotation
          End Site
          {
            OFFSET -1.1221 -3.69964 12.103
          }
        }
      }
    }
  }
  JOINT lButtock
  {
    OFFSET 8.77824 4.35084 1.2192
    CHANNELS 3 Zrotation Xrotation Yrotation
    JOINT lThigh
    {
      OFFSET 0 -1.70687 -2.19456
      CHANNELS 3 Zrotation Xrotation Yrotation
      JOINT lShin
      {
        OFFSET 0 -36.8199 0.73152
        CHANNELS 3 Zrotation Xrotation Yrotation
        JOINT lFoot
        {
          OFFSET -0.73152 -45.1104 -5.12064
          CHANNELS 3 Zrotation Xrotation Yrotation
          End Site
          {
            OFFSET 1.1221 -3.69964 12.103
          }
        }
      }
    }
  }
}
MOTION
Frames:	8
Frame Time:	0.03333
-0.9616 71.0686 0.37829999999999997 -0.889389 25.954079 3.72512 -1.2891 0.220279 -99.695294 1.961044 2.141308 100.799505 6.891492 13.698319 57.467185 -4.925082 -5.790576 -54.395032 0.003407 -0.0 -0.002802 0.002256 0.0 0.002062 0.405929 -2.508463 -0.548855 71.797627 6.349002 -11.581935 -10.381136 11.09288 40.988655 -2.70524 6.650345 -0.368888 -93.743456 37.963625 53.548675 -152.817373 -29.520902 79.510332 47.868069 -65.346537 6.095202 1.410678 22.610581 1.509254 13.010872 -40.010654 -3.111509 -7.461711 26.164735 6.077842 -0.00049 0.022552 0.007441 5.239731 37.796708 6.639037 26.965592 80.12294 10.146581 -156.110117 37.487042 -147.313851 -4.239692 -44.742767 8.647267 41.951345 -73.976392 122.801837 -173.709542 24.076829 68.478912 12.935112 28.485442 -1.688365 153.680145 8.238984 -87.336912 -34.648156 -55.855673 -31.233203 132.818522 12.807161 -111.108823 173.880942 -32.540401 -116.834509 153.320742 13.628843 -138.86206 -174.676469 -56.652806 -137.762231 145.118761 0.184893 179.187771 -11.938196 52.991637 2.683073 -12.98784 44.344208 -10.764047 25.144866 -41.07197 25.186282 0.002763 -7.6e-05 0.002763 -9.736498 -23.417133 68.352613 46.38776 17.942454 87.502363 -153.836878 11.040651 -178.4396 179.999164 75.748005 0.0 -171.503752 60.371379 48.86525 30.803933 12.926487 -51.342311 22.320799 -7.14762 -0.659034
-1.0985 71.0647 0.4705 -0.85165 26.057086 3.699243 -1.30676 0.498401 -92.220261 2.547072 1.863263 93.368665 -9.99743 25.570382 -106.839518 12.585075 23.370785 113.701493 -0.001345 0.0 -0.003132 -0.002087 -0.0 0.004705 -155.548601 -3.804532 161.899116 124.230844 -19.727685 162.327002 149.525447 7.688124 116.404234 -178.275593 15.734605 144.573 178.339571 -19.018734 88.988972 -146.147453 10.756261 78.354329 16.970036 -30.492959 -5.899121 -178.296412 -39.287679 105.814192 -0.969955 2.779622 0.552022 -88.688018 64.082216 80.430113 0.003931 1.771351 0.556737 -156.269097 -14.03267 173.516263 -154.408315 46.073777 -149.056731 -14.916097 -29.798434 -16.27502 -1.990479 -14.05281 2.881999 91.173957 -1.11539 -157.07027 -30.602181 11.482177 156.770417 174.381003 18.696563 -142.256344 85.829455 38.630323 -47.955409 121.577449 -16.497613 -77.167149 27.609508 30.765915 -20.254894 -117.103989 -62.364944 -63.69481 -6.532688 -20.415007 2.717758 -80.53631 -77.993457 -52.145702 145.09897 -1.522256 178.648106 154.008335 -12.716604 177.471862 55.228202 -50.539732 53.898028 84.454057 -53.217742 84.897456 179.976992 75.750299 0.020301 167.866274 49.905846 -171.412775 21.19256 -44.042119 98.499686 16.593229 17.647979 87.618657 179.988394 75.750857 0.007941 -170.124051 58.571712 168.468352 6.07307 -44.877961 44.941349 108.91642 -4.442273 176.855376
-1.2461 71.0613 0.5813999999999999 -0.811775 26.154649 3.675922 -1.373131 0.4838 -91.503971 2.61685 1.862006 92.665882 -8.510144 14.284294 -37.655578 18.140111 4.451867 45.317454 0.001189 -0.0 -0.000631 0.001189 -0.0 -0.000631 -2.74618 13.830501 3.437752 72.87455 10.198165 3.914875 -8.381248 -2.034484 38.788103 -3.312086 8.465772 -0.348699 -176.59984 -14.212505 89.690992 -84.108467 10.880435 29.290014 12.215964 -21.784909 -5.119418 170.244688 -47.451156 99.419545 0.541178 -1.590092 -0.293109 168.034519 -64.092742 133.247276 -0.002033 -0.061009 -0.018008 6.92093 29.712503 4.673476 -145.69543 13.730872 -142.283763 -30.13957 -43.116668 -31.218678 59.823485 -86.72246 81.624207 -100.845486 34.970616 55.548129 111.787407 -44.273821 -71.596413 -138.468302 -66.442361 -118.364377 -175.880581 -21.257683 -88.493533 172.580274 -9.001704 -97.715848 -11.98173 -21.346783 5.060919 106.412952 41.288942 -85.663821 8.417702 20.880259 -5.645151 -3.169103 0.419224 -0.044872 145.099239 -1.522203 178.650198 -12.074524 52.985792 2.681616 125.806648 -27.877045 123.551415 -10.823933 22.627607 -3.761717 0.002473 -0.000989 0.003709 -8.334193 -22.695343 -3.388621 -6.995629 36.042973 34.531838 -109.085071 17.410394 25.959279 179.997936 75.749406 0.002129 -170.009687 58.65271 168.345579 -8.447568 -44.100883 -68.830395 -45.24245 -55.71817 -137.56346
-1.4042000000000001 71.0594 0.7054 -0.760863 26.230966 3.652983 -3.844261 2.868534 0.032455 4.223509 -5.119569 1.429431 9.941191 18.555589 86.375613 -12.356752 0.734611 -80.368845 -0.003394 -0.0 0.000238 0.002222 0.0 0.000936 -157.796813 -22.115436 165.467511 -54.958494 15.933149 -0.053056 8.347163 -35.946111 -70.930189 170.204713 -19.76328 143.293023 -169.150485 -6.829824 89.916163 14.084227 -59.09927 16.223137 -151.353295 -17.158277 121.133338 -155.109177 -2.537993 118.895713 -160.889804 -7.337435 143.345589 29.96322 -60.066822 7.103026 -70.377895 -72.131206 -87.279342 -149.864536 -27.315503 -179.937551 0.098955 0.258293 0.091113 -81.328153 -54.43403 -80.910227 85.537105 68.182365 -88.688996 -52.668014 -42.209039 -104.611109 -22.899028 -7.089369 -122.918199 19.691027 39.058475 -5.381096 -6.463067 -6.452921 0.634687 19.092697 18.25965 -12.950932 148.886128 -12.610312 -120.24363 166.828095 -25.732109 -119.077918 154.142656 11.634985 -139.429857 163.711144 -6.254871 -143.126687 145.111335 -0.668474 178.91876 71.224233 -78.003706 92.79098 145.173276 12.067266 141.823678 -54.617186 81.925309 17.530989 -179.990869 75.749183 -0.006247 167.555209 52.167704 9.735436 -17.786441 46.309028 -120.437369 167.665268 8.616115 -116.893705 0.000973 0.001499 -0.001251 6.637633 -15.649114 -103.243708 -45.409015 -6.180024 -111.919861 97.912205 66.208496 164.387578
-1.5761 71.0599 0.8439 -0.703174 26.293164 3.625977 -1.564994 0.430157 -89.354944 2.839442 1.784279 90.602608 -8.880431 15.434292 -42.686109 18.466358 5.192284 52.142841 -0.000837 0.0 -0.000552 -0.001173 0.0 -0.003854 -33.843243 -85.665371 -55.260574 101.20328 39.323608 -102.127501 173.099014 -1.980187 104.076904 172.94768 -11.894586 144.217033 176.505051 -20.694799 88.628778 120.982962 -67.584106 92.340025 -160.016219 -33.011845 122.697544 -166.418746 -28.878328 118.684183 -0.287907 0.832472 0.160972 -70.422247 64.130681 62.965225 -72.756925 -72.144401 -89.771659 14.586413 15.298971 -2.634728 -157.023413 56.120928 -150.392144 -26.109004 -40.326455 -26.584039 142.973017 39.431034 -147.38875 66.049052 10.488407 -5.094639 6.118284 23.743432 147.397585 -173.444358 -22.400673 -142.955593 -51.059981 -41.203937 -12.85648 98.298059 36.826227 -71.435115 0.328235 0.529981 -0.184571 -152.722225 -54.55304 -88.664251 36.037078 51.72265 -29.832971 -3.048014 1.059984 -0.212138 145.11166 -0.668973 178.919187 150.58397 -33.837222 173.360624 119.359368 -34.785128 117.262167 40.717255 -48.899615 42.124912 -0.000484 -0.001385 -0.0 -7.437798 -22.97626 -39.524458 -42.423082 24.467711 -57.562753 152.965833 72.041015 -61.861358 179.995672 75.749317 0.002961 -169.253292 58.893093 -180.0 -16.92217 -43.948246 -51.491719 138.336667 58.22012 134.276551
-1.7651 71.0624 0.9974999999999999 -0.655901 26.340809 3.594225 -6.430184 0.510293 85.481623 -2.517913 -6.783356 -84.369665 -10.720107 20.158519 -69.70648 19.113471 12.979865 79.623372 0.001403 0.0 0.000997 0.002758 -0.0 -0.000227 -9.651429 34.836221 11.199119 75.533539 -2.003922 23.217095 -2.692689 -4.376828 40.254782 -5.44985 15.01634 -0.073834 -78.492696 38.702315 42.741775 -25.929719 -3.930702 35.451716 -5.797345 8.772259 3.566531 -173.114414 -27.756725 108.366623 -159.366604 -2.68545 142.596759 -1.385641 12.596597 2.560016 -0.014443 -1.323325 -0.414756 -155.909828 -11.579535 173.236974 -141.698652 1.899178 -138.684411 72.992206 84.115174 -34.681866 14.148352 43.061563 -15.996472 0.387372 -3.607115 -82.428775 16.650938 -69.522106 -100.429409 5.321964 1.616142 1.849974 155.113649 6.91854 -87.738908 140.403925 0.622336 -68.70878 90.225756 41.071841 -75.796437 17.592175 31.92868 -6.39521 153.321668 13.628729 -138.861244 144.180063 37.068411 -131.241735 70.380449 -72.129292 87.280525 150.972063 -0.763045 -176.391851 -13.6369 46.8981 -11.156456 81.201832 -54.157018 79.992756 -179.973232 75.74981 -0.018315 168.088772 52.20963 -0.0 -27.015169 42.30679 -99.996863 -101.010673 81.666104 -162.858692 179.994699 75.750851 0.00547 -170.933263 60.87786 54.918427 37.92418 19.562252 161.114443 107.179136 -14.844305 -179.718721
-1.9743 71.06660000000001 1.1645 -0.634125 26.379148 3.552666 -1.728669 0.111159 -93.67813 2.583557 1.990726 94.936626 -9.648733 26.361091 -105.44335 14.476914 22.082011 116.086553 0.003601 -0.0 -0.000672 -0.00335 0.0 -0.000165 0.118037 -0.713935 -0.159017 73.202686 14.511207 -9.666447 79.137192 -30.50007 72.675555 -115.446677 72.478287 94.615723 -174.302785 -11.96597 89.864524 145.941327 -47.877726 99.636699 -39.689981 37.280043 30.590851 -12.292748 25.01365 5.924921 -160.34089 -5.644484 143.087019 -34.79271 54.915524 29.486552 -145.119887 0.310006 -179.225916 10.192216 -0.130252 -9.012793 -4.784222 -11.116606 -4.481164 -24.067296 -41.370081 -24.979989 155.177148 -1.432648 -161.390282 -115.849904 22.024502 139.281336 -80.07781 59.779461 -59.176479 36.655003 56.541933 -18.837466 4.034953 3.931522 -0.755034 -8.501848 -10.006837 3.817443 -9.0884 -15.965388 4.196688 -72.812148 -56.579324 -22.986314 36.036292 51.722929 -29.832687 -3.259566 0.431124 -0.127348 0.000591 -0.061092 0.0175 6.621104 62.752564 -19.314939 1.178289 -2.985335 1.091981 -15.21483 43.992749 -8.723852 179.970228 75.749986 0.024496 167.827167 52.210225 15.267584 -13.897654 41.68625 -64.425744 -43.844185 -71.211372 50.583394 -0.0 -0.000346 -0.00134 4.543558 -14.67381 82.326112 35.710105 -4.0803 -36.201185 179.539294 -27.127328 25.143942
-2.1982 71.0751 1.3411 -0.642325 26.410947 3.50766 -4.149249 2.594045 0.015109 4.235279 -5.242846 1.443844 4.23454 30.890124 167.745189 -9.280366 23.25463 -155.584557 -0.001281 0.0 -0.001596 0.003375 0.0 0.003524 -157.797103 -22.115502 165.467209 -55.029856 14.031827 -0.126835 -0.661509 -38.885984 -76.941675 167.101398 -27.76164 141.84837 -159.653047 2.600899 88.800463 -176.871515 -15.936746 86.862462 -72.554027 43.28239 59.933324 153.769631 -55.574757 95.467779 -36.036549 51.722806 29.832865 3.163452 0.716843 0.16452 0.005781 1.855558 0.581752 6.519304 31.035927 4.969011 -141.164805 0.471014 -138.189314 17.13052 43.755963 6.071111 153.15615 9.523044 -158.797797 117.394153 -51.397851 67.691451 -42.91601 -0.198497 -162.873519 117.693166 67.546823 -95.10494 13.603348 12.629851 -3.551088 19.912152 15.306394 -23.863389 22.044237 26.609069 -15.679904 166.309917 -15.999644 -110.638164 36.035372 51.72316 -29.832608 7.432693 26.670283 -6.313865 145.120344 0.310214 179.225489 62.859771 87.664964 -76.08348 -0.099343 0.258321 -0.090518 -10.456947 26.277789 -6.198987 0.0 -0.001233 0.000485 -7.846868 -22.696262 -0.0 -2.048093 48.457273 149.848262 22.339062 28.878304 -157.681503 0.000328 -0.000191 -0.000422 5.839224 -13.495965 -0.0 -3.641972 33.483624 -58.567042 13.337663 -64.466658 95.406807
